# xmcd
#
# Track frame offsets: 
#        150
#        11483
#        21393
#        32190
#        36663
#        49749
#        65847
#        77118
#        88880
#        102172
#        121516
#        135634
#        149893
#        162094
#        180867
#        192918
#        207494
#        220808
#        232530
#        245849
#        259964
#        283156
#        308209
#
# Disc length: 4286 seconds
#
# Revision: 0
# Processed by: cddbd v1.5.2PL0 Copyright (c) Steve Scherf et al.
# Submitted via: ExactAudioCopy v0.99pb5
#
DISCID=5610bc17
DTITLE=Various Artist - The Roots of Janis Joplin
DYEAR=1900
DGENRE=
TTITLE0=Bo Diddley - Bo Diddley
TTITLE1=Oh! My Soul - Little Richard
TTITLE2=All is Loneliness - Moondog
TTITLE3=All is Loneliness - Moondog
TTITLE4=Moanin' at Midnight - Howlin' Wolf
TTITLE5=Amazing Grace - The Highway QCs
TTITLE6=It wasn't God who made Honky Tonky Angles - Kitty Wells
TTITLE7=Silver Threads and golden Needles - Wanda Jackson
TTITLE8=Summertime - Billie Holiday
TTITLE9=Little Girl Blue - Nina Simone
TTITLE10=Young Womans Blues - Bessie Smith
TTITLE11=Winin' Boy Blues -  Jelly Roll Morton
TTITLE12=Careless Love - Blind Boy Fuller
TTITLE13=See See Rider - Leadbelly
TTITLE14=Mississippi River Blues - Big Bill Broonzy
TTITLE15=Ain't no more Cane on the Brazis - Alan Lomax
TTITLE16=Nobody knows you when you're down and out - Bessie Smith
TTITLE17=Trouble in Mind - Big Bill Broonzy
TTITLE18=San Francisco Bay Blues - Jesse Fuller
TTITLE19=Black Mountain Blues - Bessie Smith
TTITLE20=Hesitation Blues - Jesse Fuller
TTITLE21=The Bourgeois Blues - Leadbelly
TTITLE22=The Coo Coo Bird - Clarence "Tom" Ashley
EXTD=
EXTT0=
EXTT1=
EXTT2=
EXTT3=
EXTT4=
EXTT5=
EXTT6=
EXTT7=
EXTT8=
EXTT9=
EXTT10=
EXTT11=
EXTT12=
EXTT13=
EXTT14=
EXTT15=
EXTT16=
EXTT17=
EXTT18=
EXTT19=
EXTT20=
EXTT21=
EXTT22=
PLAYORDER=
